<?xml version="1.0" encoding="UTF-8"?>
<svg xmlns="http://www.w3.org/2000/svg" xmlns:xlink="http://www.w3.org/1999/xlink" width="841.89pt" height="595.28pt" viewBox="0 0 841.89 595.28" version="1.1">
<g id="surface1">
<path style=" stroke:none;fill-rule:evenodd;fill:rgb(13.729858%,12.159729%,12.548828%);fill-opacity:1;" d="M 656.101562 238.808594 C 658.167969 256.621094 663.402344 237.292969 664.589844 242.984375 C 644.53125 332.894531 644.804688 291.351562 550.558594 321.289062 C 583.796875 299.464844 655.210938 318.96875 656.101562 238.808594 "/>
<path style=" stroke:none;fill-rule:evenodd;fill:rgb(13.729858%,12.159729%,12.548828%);fill-opacity:1;" d="M 261.226562 313.347656 C 183.238281 395.972656 9.695312 304.226562 37.824219 261.933594 C 79.148438 215.324219 134.101562 385.933594 261.226562 313.347656 "/>
<path style=" stroke:none;fill-rule:evenodd;fill:rgb(13.729858%,12.159729%,12.548828%);fill-opacity:1;" d="M 740.484375 374.9375 C 737.714844 403.78125 711.234375 399.105469 638.4375 371.230469 C 578.867188 348.414062 496.96875 333.753906 399.726562 354.453125 C 389.765625 381.457031 362.59375 402.085938 331.285156 392.800781 C 344.214844 425.496094 377.660156 433.925781 416.714844 435.683594 C 357.230469 458.097656 285.917969 444.761719 266.363281 400.332031 C 222.695312 412.832031 155.941406 450.859375 120.910156 481.828125 C 239.265625 328.460938 569.136719 275.726562 740.484375 374.9375 "/>
<path style=" stroke:none;fill-rule:evenodd;fill:rgb(13.729858%,12.159729%,12.548828%);fill-opacity:1;" d="M 645.210938 170.835938 C 651.816406 158.914062 648.347656 141.035156 635.738281 139.316406 C 653.183594 133.265625 658.851562 141.589844 664.425781 147.203125 C 671.125 153.949219 676.566406 152.304688 676.75 152.105469 C 676.75 152.105469 664.347656 132.359375 677.40625 121.214844 C 703.90625 165.613281 747.234375 160.800781 750.351562 195.152344 C 751.855469 211.71875 785.867188 231.007812 775.734375 242.207031 C 719.996094 267.800781 713.816406 224.585938 679.347656 220.015625 C 649.6875 216.09375 617.691406 234.300781 580.832031 238.574219 C 557.152344 241.328125 517.179688 243.78125 497.371094 243.773438 C 349.289062 243.761719 353.289062 312.566406 256.796875 358.554688 C 144.035156 417.445312 189.789062 388.039062 223.644531 366.289062 C 322.253906 308.597656 330.234375 234.558594 469.410156 223.957031 C 541.394531 218.476562 620.359375 212.671875 645.210938 170.835938 "/>
<path style=" stroke:none;fill-rule:evenodd;fill:rgb(13.729858%,12.159729%,12.548828%);fill-opacity:1;" d="M 408.621094 392.367188 C 502.027344 426.425781 512.816406 321.292969 552.363281 346.945312 C 591.089844 410.382812 446.804688 425.613281 408.621094 392.367188 "/>
<path style=" stroke:none;fill-rule:nonzero;fill:rgb(92.939758%,10.978699%,14.118958%);fill-opacity:1;" d="M 756.027344 278.054688 C 760.179688 275.335938 751.628906 244.75 735.867188 255.480469 C 731.035156 258.777344 741.101562 259.875 746.179688 268.105469 C 751.058594 276.007812 750.042969 281.972656 756.027344 278.054688 "/>
<path style=" stroke:none;fill-rule:evenodd;fill:rgb(100%,100%,100%);fill-opacity:1;" d="M 724.207031 184.90625 C 724.207031 184.90625 726.984375 181.320312 730.613281 183.777344 C 733.296875 185.585938 737.863281 190.289062 737.863281 190.289062 C 737.863281 190.289062 734.410156 192.265625 730.488281 190.308594 C 726.578125 188.351562 724.207031 184.90625 724.207031 184.90625 "/>
</g>
</svg>
